<svg width="330" height="36" viewBox="0 0 330 36" fill="none" xmlns="http://www.w3.org/2000/svg">
<path d="M17.5899 35.1798C27.2892 35.1798 35.1798 27.2892 35.1798 17.5899C35.1798 7.89058 27.2892 0 17.5899 0C7.89059 0 0 7.89058 0 17.5899C0 27.2892 7.89059 35.1798 17.5899 35.1798ZM3.70342 23.3779C5.78586 20.642 8.60666 18.6126 11.7775 17.4891C11.3596 18.0779 10.966 18.7346 10.6021 19.4581C9.24103 22.1632 8.38493 25.5855 8.12609 29.2762C6.20383 27.7168 4.67198 25.6927 3.70342 23.3779ZM16.3169 16.7688V32.5797C14.2673 32.4068 12.3334 31.8222 10.5989 30.9078C10.6902 26.9943 11.49 23.3588 12.8776 20.6027C13.861 18.6486 15.0693 17.3173 16.3179 16.7688H16.3169ZM18.8629 16.7699C20.1115 17.3183 21.3188 18.6486 22.3022 20.6027C23.6887 23.3588 24.4897 26.9943 24.5809 30.9078C22.8464 31.8222 20.9125 32.4068 18.8629 32.5797V16.7688V16.7699ZM27.0527 29.2762C26.7949 25.5855 25.9388 22.1643 24.5767 19.4581C24.2117 18.7335 23.8181 18.0768 23.4002 17.4881C26.5721 18.6115 29.3929 20.6409 31.4753 23.3768C30.5068 25.6927 28.9749 27.7157 27.0516 29.2762H27.0527ZM20.6844 5.64053C20.6844 7.34743 19.2958 8.73608 17.5889 8.73608C15.8819 8.73608 14.4933 7.34743 14.4933 5.64053C14.4933 3.93362 15.8819 2.54497 17.5889 2.54497C19.2958 2.54497 20.6844 3.93362 20.6844 5.64053ZM12.3811 3.47534C12.1032 4.14261 11.9483 4.87353 11.9483 5.64053C11.9483 8.75093 14.4784 11.2821 17.5899 11.2821C20.7014 11.2821 23.2315 8.75199 23.2315 5.64053C23.2315 4.87353 23.0766 4.14261 22.7987 3.47534C28.5347 5.59915 32.6348 11.124 32.6348 17.5899C32.6348 18.5723 32.5394 19.5334 32.358 20.4637C28.5951 16.3424 23.241 13.9427 17.5899 13.9427C11.9409 13.9427 6.5868 16.3434 2.82291 20.4648C2.64257 19.5344 2.54603 18.5733 2.54603 17.5899C2.54603 11.124 6.6462 5.59915 12.3822 3.47534H12.3811Z" fill="#FFF7F5"/>
<path d="M17.5899 35.1798C27.2892 35.1798 35.1798 27.2892 35.1798 17.5899C35.1798 7.89058 27.2892 0 17.5899 0C7.89059 0 0 7.89058 0 17.5899C0 27.2892 7.89059 35.1798 17.5899 35.1798ZM3.70342 23.3779C5.78586 20.642 8.60666 18.6126 11.7775 17.4891C11.3596 18.0779 10.966 18.7346 10.6021 19.4581C9.24103 22.1632 8.38493 25.5855 8.12609 29.2762C6.20383 27.7168 4.67198 25.6927 3.70342 23.3779ZM16.3169 16.7688V32.5797C14.2673 32.4068 12.3334 31.8222 10.5989 30.9078C10.6902 26.9943 11.49 23.3588 12.8776 20.6027C13.861 18.6486 15.0693 17.3173 16.3179 16.7688H16.3169ZM18.8629 16.7699C20.1115 17.3183 21.3188 18.6486 22.3022 20.6027C23.6887 23.3588 24.4897 26.9943 24.5809 30.9078C22.8464 31.8222 20.9125 32.4068 18.8629 32.5797V16.7688V16.7699ZM27.0527 29.2762C26.7949 25.5855 25.9388 22.1643 24.5767 19.4581C24.2117 18.7335 23.8181 18.0768 23.4002 17.4881C26.5721 18.6115 29.3929 20.6409 31.4753 23.3768C30.5068 25.6927 28.9749 27.7157 27.0516 29.2762H27.0527ZM20.6844 5.64053C20.6844 7.34743 19.2958 8.73608 17.5889 8.73608C15.8819 8.73608 14.4933 7.34743 14.4933 5.64053C14.4933 3.93362 15.8819 2.54497 17.5889 2.54497C19.2958 2.54497 20.6844 3.93362 20.6844 5.64053ZM12.3811 3.47534C12.1032 4.14261 11.9483 4.87353 11.9483 5.64053C11.9483 8.75093 14.4784 11.2821 17.5899 11.2821C20.7014 11.2821 23.2315 8.75199 23.2315 5.64053C23.2315 4.87353 23.0766 4.14261 22.7987 3.47534C28.5347 5.59915 32.6348 11.124 32.6348 17.5899C32.6348 18.5723 32.5394 19.5334 32.358 20.4637C28.5951 16.3424 23.241 13.9427 17.5899 13.9427C11.9409 13.9427 6.5868 16.3434 2.82291 20.4648C2.64257 19.5344 2.54603 18.5733 2.54603 17.5899C2.54603 11.124 6.6462 5.59915 12.3822 3.47534H12.3811Z" fill="url(#paint0_linear_50_4)"/>
<path d="M303.567 5.70972H329.857V11.3025H310.692V14.7579H328.895V19.9945H310.692V23.7705H330V29.4701H303.567V5.70972Z" fill="#FFF7F5"/>
<path d="M303.567 5.70972H329.857V11.3025H310.692V14.7579H328.895V19.9945H310.692V23.7705H330V29.4701H303.567V5.70972Z" fill="url(#paint1_linear_50_4)"/>
<path d="M294.799 20.3151H302.066C302.102 21.6688 302.137 22.2031 302.137 22.5593C302.137 26.4066 301.14 28.1521 298.504 29.0071C296.58 29.6126 293.98 29.8264 288.707 29.8264C279.41 29.8264 276.418 29.5414 274.494 28.4371C272.927 27.5465 272.214 26.2285 271.929 23.8061C271.822 22.7374 271.751 20.7782 271.751 17.7503C271.751 12.4425 271.893 10.4832 272.428 9.16516C273.71 5.9591 276.311 5.35352 288.743 5.35352C295.084 5.35352 297.293 5.60288 298.931 6.45782C300.962 7.49088 301.674 9.2364 301.674 13.048V14.2236H294.443C294.372 12.6562 294.3 12.3356 293.873 11.9794C293.338 11.5163 291.237 11.3025 286.677 11.3025C282.153 11.3025 280.835 11.445 280.122 12.015C279.267 12.7274 278.982 14.1167 278.982 17.7146C278.982 23.8061 279.089 23.8774 286.713 23.8774C294.657 23.8774 294.763 23.8418 294.799 20.3151Z" fill="#FFF7F5"/>
<path d="M294.799 20.3151H302.066C302.102 21.6688 302.137 22.2031 302.137 22.5593C302.137 26.4066 301.14 28.1521 298.504 29.0071C296.58 29.6126 293.98 29.8264 288.707 29.8264C279.41 29.8264 276.418 29.5414 274.494 28.4371C272.927 27.5465 272.214 26.2285 271.929 23.8061C271.822 22.7374 271.751 20.7782 271.751 17.7503C271.751 12.4425 271.893 10.4832 272.428 9.16516C273.71 5.9591 276.311 5.35352 288.743 5.35352C295.084 5.35352 297.293 5.60288 298.931 6.45782C300.962 7.49088 301.674 9.2364 301.674 13.048V14.2236H294.443C294.372 12.6562 294.3 12.3356 293.873 11.9794C293.338 11.5163 291.237 11.3025 286.677 11.3025C282.153 11.3025 280.835 11.445 280.122 12.015C279.267 12.7274 278.982 14.1167 278.982 17.7146C278.982 23.8061 279.089 23.8774 286.713 23.8774C294.657 23.8774 294.763 23.8418 294.799 20.3151Z" fill="url(#paint2_linear_50_4)"/>
<path d="M241.104 29.4701V5.70972H258.595C266.789 5.70972 266.789 5.70972 268.32 6.63591C270.137 7.74022 270.672 9.30762 270.672 13.4399C270.672 16.9665 270.315 18.3202 269.033 19.282C268.356 19.8164 267.679 20.0657 266.254 20.2794C269.923 20.7069 270.565 21.7756 270.422 27.2615V29.4701H263.298V28.2233C263.298 25.5516 263.155 24.6967 262.585 24.0911C262.086 23.5211 261.552 23.4499 258.56 23.4499H248.336V29.4701H241.104ZM248.336 17.5009H258.524C262.158 17.4296 262.158 17.4296 262.656 17.0734C263.226 16.7172 263.44 16.0047 263.44 14.5086C263.44 12.9055 263.155 12.2287 262.407 11.9081C261.908 11.6944 261.801 11.6944 258.524 11.6587H248.336V17.5009Z" fill="#FFF7F5"/>
<path d="M241.104 29.4701V5.70972H258.595C266.789 5.70972 266.789 5.70972 268.32 6.63591C270.137 7.74022 270.672 9.30762 270.672 13.4399C270.672 16.9665 270.315 18.3202 269.033 19.282C268.356 19.8164 267.679 20.0657 266.254 20.2794C269.923 20.7069 270.565 21.7756 270.422 27.2615V29.4701H263.298V28.2233C263.298 25.5516 263.155 24.6967 262.585 24.0911C262.086 23.5211 261.552 23.4499 258.56 23.4499H248.336V29.4701H241.104ZM248.336 17.5009H258.524C262.158 17.4296 262.158 17.4296 262.656 17.0734C263.226 16.7172 263.44 16.0047 263.44 14.5086C263.44 12.9055 263.155 12.2287 262.407 11.9081C261.908 11.6944 261.801 11.6944 258.524 11.6587H248.336V17.5009Z" fill="url(#paint3_linear_50_4)"/>
<path d="M222.994 5.35352C232.933 5.35352 235.141 5.60288 236.958 6.99216C238.775 8.38146 239.309 10.7682 239.309 17.5721C239.309 24.4117 238.775 26.7984 236.958 28.1877C235.141 29.577 232.897 29.8264 223.065 29.8264C213.055 29.8264 210.847 29.577 209.03 28.1877C207.177 26.7628 206.679 24.4117 206.679 17.4296C206.679 10.8038 207.213 8.38146 209.03 6.99216C210.847 5.60288 213.055 5.35352 222.994 5.35352ZM222.994 11.5163C215.869 11.5163 215.193 11.6231 214.48 13.0124C214.053 13.8317 213.91 15.1854 213.91 18.2134C213.91 21.17 214.124 22.1319 214.979 22.8087C215.941 23.5568 217.081 23.6636 223.065 23.6636C228.872 23.6636 230.047 23.5211 231.009 22.8087C231.828 22.1675 232.078 21.1344 232.078 18.249C232.078 14.7223 231.864 13.3686 231.223 12.5849C230.404 11.6231 229.62 11.5163 222.994 11.5163Z" fill="#FFF7F5"/>
<path d="M222.994 5.35352C232.933 5.35352 235.141 5.60288 236.958 6.99216C238.775 8.38146 239.309 10.7682 239.309 17.5721C239.309 24.4117 238.775 26.7984 236.958 28.1877C235.141 29.577 232.897 29.8264 223.065 29.8264C213.055 29.8264 210.847 29.577 209.03 28.1877C207.177 26.7628 206.679 24.4117 206.679 17.4296C206.679 10.8038 207.213 8.38146 209.03 6.99216C210.847 5.60288 213.055 5.35352 222.994 5.35352ZM222.994 11.5163C215.869 11.5163 215.193 11.6231 214.48 13.0124C214.053 13.8317 213.91 15.1854 213.91 18.2134C213.91 21.17 214.124 22.1319 214.979 22.8087C215.941 23.5568 217.081 23.6636 223.065 23.6636C228.872 23.6636 230.047 23.5211 231.009 22.8087C231.828 22.1675 232.078 21.1344 232.078 18.249C232.078 14.7223 231.864 13.3686 231.223 12.5849C230.404 11.6231 229.62 11.5163 222.994 11.5163Z" fill="url(#paint4_linear_50_4)"/>
<path d="M181.04 5.70972H206.154V11.3025H188.271V15.791H205.264V21.2413H188.271V29.4701H181.04V5.70972Z" fill="#FFF7F5"/>
<path d="M181.04 5.70972H206.154V11.3025H188.271V15.791H205.264V21.2413H188.271V29.4701H181.04V5.70972Z" fill="url(#paint5_linear_50_4)"/>
<path d="M172.8 29.4701L170.769 25.4448H155.06L153.029 29.4701H144.765L157.34 5.70972H168.596L181.029 29.4701H172.8ZM168.24 20.2438L163.645 11.2313H162.22L157.625 20.2438H168.24Z" fill="#FFF7F5"/>
<path d="M172.8 29.4701L170.769 25.4448H155.06L153.029 29.4701H144.765L157.34 5.70972H168.596L181.029 29.4701H172.8ZM168.24 20.2438L163.645 11.2313H162.22L157.625 20.2438H168.24Z" fill="url(#paint6_linear_50_4)"/>
<path d="M116.505 21.5975H123.523C123.523 23.0224 123.665 23.4855 124.235 23.8418C124.912 24.2692 125.696 24.3405 130.79 24.3405C138.555 24.3405 138.555 24.3405 138.555 22.2387C138.555 20.8138 138.021 20.4576 135.706 20.422L130.006 20.2082L126.159 20.0301L124.235 19.9589C118.357 19.7808 116.719 18.2846 116.719 13.048C116.719 8.52395 118.001 6.49345 121.278 5.78099C122.668 5.49601 125.945 5.35352 131.645 5.35352C138.555 5.35352 141.049 5.67412 142.723 6.81405C144.148 7.77587 144.718 9.27202 144.718 12.0862C144.718 12.2287 144.718 12.7274 144.683 13.1905H137.701C137.629 11.8725 137.522 11.5519 136.988 11.2313C136.382 10.8751 135.492 10.8038 130.362 10.8038C124.235 10.8038 123.736 10.9463 123.736 12.6918C123.736 13.5824 124.057 14.0455 124.805 14.2236C125.446 14.4017 127.406 14.5086 132.428 14.6511C140.265 14.9004 141.797 15.0785 143.329 16.0404C144.968 17.109 145.573 18.7121 145.573 22.025C145.573 26.1572 144.576 28.1877 142.118 29.1139C140.693 29.6483 137.701 29.8264 130.612 29.8264C123.238 29.8264 120.352 29.5058 118.678 28.4371C117.039 27.404 116.505 26.0147 116.505 22.7374V21.5975Z" fill="#FFF7F5"/>
<path d="M116.505 21.5975H123.523C123.523 23.0224 123.665 23.4855 124.235 23.8418C124.912 24.2692 125.696 24.3405 130.79 24.3405C138.555 24.3405 138.555 24.3405 138.555 22.2387C138.555 20.8138 138.021 20.4576 135.706 20.422L130.006 20.2082L126.159 20.0301L124.235 19.9589C118.357 19.7808 116.719 18.2846 116.719 13.048C116.719 8.52395 118.001 6.49345 121.278 5.78099C122.668 5.49601 125.945 5.35352 131.645 5.35352C138.555 5.35352 141.049 5.67412 142.723 6.81405C144.148 7.77587 144.718 9.27202 144.718 12.0862C144.718 12.2287 144.718 12.7274 144.683 13.1905H137.701C137.629 11.8725 137.522 11.5519 136.988 11.2313C136.382 10.8751 135.492 10.8038 130.362 10.8038C124.235 10.8038 123.736 10.9463 123.736 12.6918C123.736 13.5824 124.057 14.0455 124.805 14.2236C125.446 14.4017 127.406 14.5086 132.428 14.6511C140.265 14.9004 141.797 15.0785 143.329 16.0404C144.968 17.109 145.573 18.7121 145.573 22.025C145.573 26.1572 144.576 28.1877 142.118 29.1139C140.693 29.6483 137.701 29.8264 130.612 29.8264C123.238 29.8264 120.352 29.5058 118.678 28.4371C117.039 27.404 116.505 26.0147 116.505 22.7374V21.5975Z" fill="url(#paint7_linear_50_4)"/>
<path d="M109.116 29.4701L107.086 25.4448H91.3761L89.3456 29.4701H81.0811L93.656 5.70972H104.913L117.345 29.4701H109.116ZM104.557 20.2438L99.9612 11.2313H98.5363L93.9409 20.2438H104.557Z" fill="#FFF7F5"/>
<path d="M109.116 29.4701L107.086 25.4448H91.3761L89.3456 29.4701H81.0811L93.656 5.70972H104.913L117.345 29.4701H109.116ZM104.557 20.2438L99.9612 11.2313H98.5363L93.9409 20.2438H104.557Z" fill="url(#paint8_linear_50_4)"/>
<path d="M47.416 5.70972H60.0978L72.5302 23.4143H73.2783L73.1002 5.70972H80.4741V29.4701H67.8992L55.3956 11.73H54.6119L54.79 29.4701H47.416V5.70972Z" fill="#FFF7F5"/>
<path d="M47.416 5.70972H60.0978L72.5302 23.4143H73.2783L73.1002 5.70972H80.4741V29.4701H67.8992L55.3956 11.73H54.6119L54.79 29.4701H47.416V5.70972Z" fill="url(#paint9_linear_50_4)"/>
<defs>
<linearGradient id="paint0_linear_50_4" x1="17.5899" y1="0" x2="17.5899" y2="55.0783" gradientUnits="userSpaceOnUse">
<stop stop-color="#757574"/>
<stop offset="0.480769" stop-color="#F1F0E0"/>
<stop offset="1" stop-color="#757574"/>
</linearGradient>
<linearGradient id="paint1_linear_50_4" x1="316.783" y1="5.70972" x2="316.783" y2="42.9095" gradientUnits="userSpaceOnUse">
<stop stop-color="#757574"/>
<stop offset="0.480769" stop-color="#F1F0E0"/>
<stop offset="1" stop-color="#757574"/>
</linearGradient>
<linearGradient id="paint2_linear_50_4" x1="286.944" y1="5.35352" x2="286.944" y2="43.6688" gradientUnits="userSpaceOnUse">
<stop stop-color="#757574"/>
<stop offset="0.480769" stop-color="#F1F0E0"/>
<stop offset="1" stop-color="#757574"/>
</linearGradient>
<linearGradient id="paint3_linear_50_4" x1="255.888" y1="5.70972" x2="255.888" y2="42.9095" gradientUnits="userSpaceOnUse">
<stop stop-color="#757574"/>
<stop offset="0.480769" stop-color="#F1F0E0"/>
<stop offset="1" stop-color="#757574"/>
</linearGradient>
<linearGradient id="paint4_linear_50_4" x1="222.994" y1="5.35352" x2="222.994" y2="43.6688" gradientUnits="userSpaceOnUse">
<stop stop-color="#757574"/>
<stop offset="0.480769" stop-color="#F1F0E0"/>
<stop offset="1" stop-color="#757574"/>
</linearGradient>
<linearGradient id="paint5_linear_50_4" x1="193.597" y1="5.70972" x2="193.597" y2="42.9095" gradientUnits="userSpaceOnUse">
<stop stop-color="#757574"/>
<stop offset="0.480769" stop-color="#F1F0E0"/>
<stop offset="1" stop-color="#757574"/>
</linearGradient>
<linearGradient id="paint6_linear_50_4" x1="162.897" y1="5.70972" x2="162.897" y2="42.9095" gradientUnits="userSpaceOnUse">
<stop stop-color="#757574"/>
<stop offset="0.480769" stop-color="#F1F0E0"/>
<stop offset="1" stop-color="#757574"/>
</linearGradient>
<linearGradient id="paint7_linear_50_4" x1="131.039" y1="5.35352" x2="131.039" y2="43.6688" gradientUnits="userSpaceOnUse">
<stop stop-color="#757574"/>
<stop offset="0.480769" stop-color="#F1F0E0"/>
<stop offset="1" stop-color="#757574"/>
</linearGradient>
<linearGradient id="paint8_linear_50_4" x1="99.2131" y1="5.70972" x2="99.2131" y2="42.9095" gradientUnits="userSpaceOnUse">
<stop stop-color="#757574"/>
<stop offset="0.480769" stop-color="#F1F0E0"/>
<stop offset="1" stop-color="#757574"/>
</linearGradient>
<linearGradient id="paint9_linear_50_4" x1="63.9451" y1="5.70972" x2="63.9451" y2="42.9095" gradientUnits="userSpaceOnUse">
<stop stop-color="#757574"/>
<stop offset="0.480769" stop-color="#F1F0E0"/>
<stop offset="1" stop-color="#757574"/>
</linearGradient>
</defs>
</svg>
