<svg width="1184" height="103" viewBox="0 0 1184 103" fill="none" xmlns="http://www.w3.org/2000/svg">
<path d="M1073.25 1.49268H1183.4V24.9259H1103.1V39.4038H1179.37V61.3444H1103.1V77.1656H1184V101.047H1073.25V1.49268Z" fill="#FFF7F5"/>
<path d="M1036.51 62.6876H1066.96C1067.11 68.3593 1067.25 70.5982 1067.25 72.0908C1067.25 88.2104 1063.08 95.524 1052.03 99.1061C1043.97 101.643 1033.08 102.539 1010.99 102.539C972.029 102.539 959.492 101.345 951.432 96.718C944.865 92.9866 941.88 87.4641 940.686 77.3147C940.238 72.837 939.939 64.6279 939.939 51.9412C939.939 29.702 940.536 21.4929 942.775 15.9704C948.149 2.53736 959.044 0 1011.13 0C1037.7 0 1046.96 1.0448 1053.82 4.62694C1062.33 8.95537 1065.31 16.2689 1065.31 32.2393V37.1648H1035.02C1034.72 30.5975 1034.42 29.2542 1032.63 27.7617C1030.39 25.8213 1021.58 24.9258 1002.48 24.9258C983.522 24.9258 978 25.5228 975.015 27.9109C971.433 30.896 970.238 36.717 970.238 51.7919C970.238 77.3147 970.686 77.6132 1002.63 77.6132C1035.91 77.6132 1036.36 77.464 1036.51 62.6876Z" fill="#FFF7F5"/>
<path d="M811.534 101.047V1.49268H884.819C919.148 1.49268 919.148 1.49268 925.566 5.37334C933.178 10.0003 935.417 16.5676 935.417 33.8813C935.417 48.6576 933.924 54.3294 928.551 58.3593C925.715 60.5981 922.879 61.6429 916.909 62.5385C932.282 64.3296 934.969 68.8072 934.372 91.7927V101.047H904.521V95.8226C904.521 84.6284 903.924 81.0462 901.536 78.5089C899.446 76.1208 897.207 75.8223 884.67 75.8223H841.833V101.047H811.534ZM841.833 50.8965H884.52C899.745 50.598 899.745 50.598 901.834 49.1054C904.222 47.6129 905.118 44.6277 905.118 38.359C905.118 31.6424 903.924 28.8066 900.789 27.4633C898.7 26.5677 898.252 26.5677 884.52 26.4185H841.833V50.8965Z" fill="#FFF7F5"/>
<path d="M735.648 0C777.29 0 786.544 1.0448 794.156 6.86579C801.768 12.6868 804.007 22.6869 804.007 51.1949C804.007 79.8521 801.768 89.8522 794.156 95.6732C786.544 101.494 777.141 102.539 735.946 102.539C694.005 102.539 684.752 101.494 677.139 95.6732C669.378 89.703 667.289 79.8521 667.289 50.5979C667.289 22.8362 669.527 12.6868 677.139 6.86579C684.752 1.0448 694.005 0 735.648 0ZM735.648 25.8213C705.797 25.8213 702.961 26.2691 699.976 32.0901C698.185 35.523 697.588 41.1947 697.588 53.8815C697.588 66.2698 698.483 70.2997 702.065 73.1355C706.095 76.2699 710.871 76.7177 735.946 76.7177C760.275 76.7177 765.201 76.1207 769.23 73.1355C772.663 70.4489 773.708 66.1205 773.708 54.0307C773.708 39.2544 772.813 33.5827 770.126 30.299C766.693 26.2691 763.409 25.8213 735.648 25.8213Z" fill="#FFF7F5"/>
<path d="M559.875 1.49268H665.1V24.9259H590.174V43.7322H661.369V66.5684H590.174V101.047H559.875V1.49268Z" fill="#FFF7F5"/>
<path d="M525.339 101.047L516.831 84.1806H451.01L442.502 101.047H407.875L460.562 1.49268H507.727L559.817 101.047H525.339ZM506.234 62.3892L486.98 24.6274H481.01L461.756 62.3892H506.234Z" fill="#FFF7F5"/>
<path d="M289.474 68.0608H318.877C318.877 74.0311 319.474 75.9714 321.862 77.464C324.698 79.2551 327.982 79.5536 349.325 79.5536C381.863 79.5536 381.863 79.5536 381.863 70.7474C381.863 64.7772 379.624 63.2846 369.923 63.1354L346.042 62.2398L329.922 61.4936L321.862 61.195C297.235 60.4488 290.369 54.18 290.369 32.2393C290.369 13.2838 295.742 4.7762 309.474 1.79108C315.295 0.597026 329.026 0 352.907 0C381.863 0 392.311 1.34331 399.326 6.11951C405.296 10.1494 407.684 16.4182 407.684 28.2094C407.684 28.8064 407.685 30.896 407.535 32.8364H378.281C377.983 27.3139 377.535 25.9706 375.296 24.6273C372.759 23.1347 369.027 22.8362 347.534 22.8362C321.862 22.8362 319.773 23.4332 319.773 30.7468C319.773 34.4782 321.116 36.4185 324.25 37.1648C326.937 37.9111 335.146 38.3588 356.191 38.9559C389.027 40.0007 395.445 40.7469 401.864 44.7769C408.729 49.2546 411.267 55.9711 411.267 69.8519C411.267 87.1656 407.087 95.6732 396.789 99.5539C390.819 101.793 378.281 102.539 348.579 102.539C317.683 102.539 305.593 101.196 298.578 96.718C291.712 92.3896 289.474 86.5686 289.474 72.837V68.0608Z" fill="#FFF7F5"/>
<path d="M258.521 101.047L250.014 84.1806H184.192L175.684 101.047H141.057L193.744 1.49268H240.909L292.999 101.047H258.521ZM239.416 62.3892L220.162 24.6274H214.192L194.938 62.3892H239.416Z" fill="#FFF7F5"/>
<path d="M0 1.49268H53.1352L105.226 75.673H108.36L107.614 1.49268H138.51V101.047H85.8223L33.4334 26.717H30.1497L30.896 101.047H0V1.49268Z" fill="#FFF7F5"/>
</svg>
