<svg width="216" height="23" viewBox="0 0 216 23" fill="none" xmlns="http://www.w3.org/2000/svg">
<path d="M11.5 23C17.8413 23 23 17.8413 23 11.5C23 5.15874 17.8413 0 11.5 0C5.15874 0 0 5.15874 0 11.5C0 17.8413 5.15874 23 11.5 23ZM2.42124 15.2841C3.78271 13.4954 5.62689 12.1686 7.69996 11.4341C7.42669 11.819 7.16938 12.2484 6.93148 12.7214C6.04164 14.49 5.48194 16.7274 5.31271 19.1403C4.05597 18.1208 3.05446 16.7974 2.42124 15.2841ZM10.6677 10.9632V21.3001C9.32776 21.187 8.06339 20.8049 6.92941 20.207C6.98906 17.6485 7.512 15.2716 8.41919 13.4697C9.06212 12.1922 9.85209 11.3218 10.6684 10.9632H10.6677ZM12.3323 10.9639C13.1486 11.3224 13.9379 12.1922 14.5808 13.4697C15.4873 15.2716 16.0109 17.6485 16.0706 20.207C14.9366 20.8049 13.6722 21.187 12.3323 21.3001V10.9632V10.9639ZM17.6866 19.1403C17.5181 16.7274 16.9584 14.4907 16.0678 12.7214C15.8292 12.2477 15.5719 11.8183 15.2987 11.4334C17.3724 12.1679 19.2166 13.4947 20.5781 15.2834C19.9448 16.7974 18.9433 18.1201 17.6859 19.1403H17.6866ZM13.5231 3.68769C13.5231 4.80363 12.6153 5.71151 11.4993 5.71151C10.3834 5.71151 9.47548 4.80363 9.47548 3.68769C9.47548 2.57174 10.3834 1.66386 11.4993 1.66386C12.6153 1.66386 13.5231 2.57174 13.5231 3.68769ZM8.09459 2.27212C7.91288 2.70837 7.81162 3.18624 7.81162 3.68769C7.81162 5.72122 9.46578 7.37607 11.5 7.37607C13.5342 7.37607 15.1884 5.72191 15.1884 3.68769C15.1884 3.18624 15.0871 2.70837 14.9054 2.27212C18.6555 3.66064 21.3361 7.27272 21.3361 11.5C21.3361 12.1422 21.2737 12.7706 21.1551 13.3789C18.695 10.6844 15.1946 9.11552 11.5 9.11552C7.80677 9.11552 4.30634 10.6851 1.84558 13.3796C1.72767 12.7713 1.66456 12.1429 1.66456 11.5C1.66456 7.27272 4.34518 3.66064 8.09529 2.27212H8.09459Z" fill="#FFF7F5"/>
<path d="M198.468 3.7329H215.656V7.38937H203.126V9.64847H215.027V13.0721H203.126V15.5408H215.749V19.2671H198.468V3.7329Z" fill="#FFF7F5"/>
<path d="M192.735 13.2817H197.486C197.509 14.1667 197.533 14.516 197.533 14.7489C197.533 17.2642 196.88 18.4054 195.157 18.9643C193.899 19.3603 192.199 19.5 188.752 19.5C182.674 19.5 180.717 19.3137 179.46 18.5917C178.435 18.0095 177.969 17.1477 177.783 15.564C177.713 14.8654 177.667 13.5844 177.667 11.6048C177.667 8.13464 177.76 6.85371 178.109 5.99199C178.947 3.89592 180.648 3.5 188.776 3.5C192.921 3.5 194.365 3.66303 195.437 4.22198C196.764 4.89738 197.23 6.03857 197.23 8.53057V9.29913H192.502C192.455 8.27438 192.409 8.06477 192.129 7.83188C191.78 7.52911 190.406 7.38937 187.425 7.38937C184.467 7.38937 183.605 7.48253 183.14 7.85517C182.581 8.32096 182.394 9.22926 182.394 11.5815C182.394 15.564 182.464 15.6106 187.448 15.6106C192.642 15.6106 192.712 15.5873 192.735 13.2817Z" fill="#FFF7F5"/>
<path d="M157.63 19.2671V3.7329H169.066C174.422 3.7329 174.422 3.7329 175.424 4.33843C176.611 5.06041 176.961 6.08515 176.961 8.78675C176.961 11.0924 176.728 11.9774 175.889 12.6063C175.447 12.9556 175.004 13.1186 174.073 13.2584C176.472 13.5378 176.891 14.2365 176.798 17.8231V19.2671H172.14V18.452C172.14 16.7052 172.047 16.1463 171.674 15.7504C171.348 15.3777 170.999 15.3312 169.042 15.3312H162.358V19.2671H157.63ZM162.358 11.4418H169.019C171.395 11.3952 171.395 11.3952 171.721 11.1623C172.093 10.9294 172.233 10.4636 172.233 9.48544C172.233 8.43741 172.047 7.99491 171.558 7.7853C171.232 7.64556 171.162 7.64556 169.019 7.62227H162.358V11.4418Z" fill="#FFF7F5"/>
<path d="M145.789 3.5C152.287 3.5 153.731 3.66303 154.919 4.57132C156.107 5.47962 156.456 7.04003 156.456 11.4884C156.456 15.96 156.107 17.5204 154.919 18.4287C153.731 19.337 152.264 19.5 145.836 19.5C139.291 19.5 137.847 19.337 136.66 18.4287C135.449 17.4971 135.123 15.96 135.123 11.3952C135.123 7.06332 135.472 5.47962 136.66 4.57132C137.847 3.66303 139.291 3.5 145.789 3.5ZM145.789 7.52911C141.131 7.52911 140.689 7.59898 140.223 8.50728C139.944 9.04294 139.85 9.92795 139.85 11.9076C139.85 13.8406 139.99 14.4694 140.549 14.9119C141.178 15.401 141.923 15.4709 145.836 15.4709C149.632 15.4709 150.401 15.3777 151.029 14.9119C151.565 14.4927 151.728 13.8173 151.728 11.9309C151.728 9.62518 151.588 8.74017 151.169 8.2278C150.633 7.59898 150.121 7.52911 145.789 7.52911Z" fill="#FFF7F5"/>
<path d="M118.362 3.7329H134.781V7.38937H123.09V10.3239H134.199V13.8872H123.09V19.2671H118.362V3.7329Z" fill="#FFF7F5"/>
<path d="M112.973 19.2671L111.645 16.6354H101.375L100.047 19.2671H94.644L102.865 3.7329H110.225L118.353 19.2671H112.973ZM109.992 13.2351L106.988 7.34279H106.056L103.052 13.2351H109.992Z" fill="#FFF7F5"/>
<path d="M76.1689 14.1201H80.757C80.757 15.0517 80.8502 15.3544 81.2228 15.5873C81.6653 15.8668 82.1777 15.9134 85.5081 15.9134C90.5852 15.9134 90.5853 15.9134 90.5853 14.5393C90.5853 13.6077 90.2359 13.3748 88.7221 13.3515L84.9957 13.2118L82.4804 13.0953L81.2228 13.0488C77.38 12.9323 76.3087 11.9541 76.3087 8.53057C76.3087 5.57278 77.1471 4.24527 79.2898 3.77948C80.1981 3.59316 82.3407 3.5 86.0671 3.5C90.5852 3.5 92.2155 3.70961 93.3101 4.45488C94.2417 5.0837 94.6144 6.06186 94.6144 7.90175C94.6144 7.99491 94.6144 8.32096 94.5911 8.62373H90.0263C89.9797 7.76201 89.9098 7.5524 89.5605 7.34279C89.1646 7.1099 88.5823 7.06332 85.2286 7.06332C81.2228 7.06332 80.8967 7.15648 80.8967 8.29767C80.8967 8.87991 81.1064 9.18268 81.5954 9.29913C82.0147 9.41558 83.2956 9.48544 86.5794 9.5786C91.7032 9.74163 92.7046 9.85808 93.7061 10.4869C94.7774 11.1856 95.1733 12.2336 95.1733 14.3996C95.1733 17.1012 94.5212 18.4287 92.9142 19.0342C91.9826 19.3836 90.0263 19.5 85.3917 19.5C80.5707 19.5 78.6842 19.2904 77.5896 18.5917C76.5183 17.9163 76.1689 17.008 76.1689 14.8654V14.1201Z" fill="#FFF7F5"/>
<path d="M71.3392 19.2671L70.0117 16.6354H59.741L58.4135 19.2671H53.0103L61.2315 3.7329H68.591L76.7191 19.2671H71.3392ZM68.3581 13.2351L65.3538 7.34279H64.4222L61.4178 13.2351H68.3581Z" fill="#FFF7F5"/>
<path d="M31 3.7329H39.2911L47.4192 15.3079H47.9083L47.7918 3.7329H52.6128V19.2671H44.3916L36.2169 7.66885H35.7045L35.821 19.2671H31V3.7329Z" fill="#FFF7F5"/>
</svg>
